<svg width="20" height="20" viewBox="0 0 20 20" fill="none" xmlns="http://www.w3.org/2000/svg">
<path d="M14.5 18H15.5V15.5H18V14.5H15.5V12H14.5V14.5H12V15.5H14.5V18ZM15 20C13.6167 20 12.4375 19.5125 11.4625 18.5375C10.4875 17.5625 10 16.3833 10 15C10 13.6167 10.4875 12.4375 11.4625 11.4625C12.4375 10.4875 13.6167 10 15 10C16.3833 10 17.5625 10.4875 18.5375 11.4625C19.5125 12.4375 20 13.6167 20 15C20 16.3833 19.5125 17.5625 18.5375 18.5375C17.5625 19.5125 16.3833 20 15 20ZM4 6H14V4H4V6ZM8.675 18H2C1.45 18 0.979167 17.8042 0.5875 17.4125C0.195833 17.0208 0 16.55 0 16V2C0 1.45 0.195833 0.979167 0.5875 0.5875C0.979167 0.195833 1.45 0 2 0H16C16.55 0 17.0208 0.195833 17.4125 0.5875C17.8042 0.979167 18 1.45 18 2V8.7C17.5167 8.46667 17.0292 8.29167 16.5375 8.175C16.0458 8.05833 15.5333 8 15 8C14.8167 8 14.6458 8.00417 14.4875 8.0125C14.3292 8.02083 14.1667 8.04167 14 8.075V8H4V10H10.125C9.825 10.2833 9.55417 10.5917 9.3125 10.925C9.07083 11.2583 8.85833 11.6167 8.675 12H4V14H8.075C8.04167 14.1667 8.02083 14.3292 8.0125 14.4875C8.00417 14.6458 8 14.8167 8 15C8 15.55 8.05 16.0625 8.15 16.5375C8.25 17.0125 8.425 17.5 8.675 18Z" fill="#797979"/>
</svg>
