<svg width="21" height="20" viewBox="0 0 21 20" fill="none" xmlns="http://www.w3.org/2000/svg">
<path d="M6 18.0248V8.99983H7.6C7.71667 8.99983 7.83333 9.01233 7.95 9.03733C8.06667 9.06233 8.18333 9.0915 8.3 9.12483L15.225 11.6998C15.4583 11.7832 15.6458 11.9332 15.7875 12.1498C15.9292 12.3665 16 12.5915 16 12.8248C16 13.1748 15.8792 13.4582 15.6375 13.6748C15.3958 13.8915 15.1167 13.9998 14.8 13.9998H12.175C12.0917 13.9998 12.0292 13.9957 11.9875 13.9873C11.9458 13.979 11.8917 13.9582 11.825 13.9248L10.225 13.2998L9.9 14.2748L11.825 14.9498C11.8583 14.9665 11.9083 14.979 11.975 14.9873C12.0417 14.9957 12.1 14.9998 12.15 14.9998H19C19.5333 14.9998 20 15.1915 20.4 15.5748C20.8 15.9582 21 16.4332 21 16.9998L13.025 19.9998L6 18.0248ZM0 19.9998V8.99983H4V19.9998H0ZM11.925 9.04983L7.675 4.79983L9.1 3.39983L11.925 6.22483L17.6 0.574829L19 1.97483L11.925 9.04983Z" fill="#797979"/>
</svg>
