<svg width="24" height="24" viewBox="0 0 24 24" fill="none" xmlns="http://www.w3.org/2000/svg">
<mask id="mask0_1079_7107" style="mask-type:alpha" maskUnits="userSpaceOnUse" x="0" y="0" width="24" height="24">
<rect width="24" height="24" fill="#D9D9D9"/>
</mask>
<g mask="url(#mask0_1079_7107)">
<path d="M1.99805 24.0017V20.0017H21.998V24.0017H1.99805ZM5.99805 16.0017H7.39805L15.198 8.22671L13.773 6.80171L5.99805 14.6017V16.0017ZM3.99805 18.0017V13.7517L15.198 2.57671C15.3814 2.39338 15.5939 2.25171 15.8355 2.15171C16.0772 2.05171 16.3314 2.00171 16.598 2.00171C16.8647 2.00171 17.123 2.05171 17.373 2.15171C17.623 2.25171 17.848 2.40171 18.048 2.60171L19.423 4.00171C19.623 4.18504 19.7689 4.40171 19.8605 4.65171C19.9522 4.90171 19.998 5.16004 19.998 5.42671C19.998 5.67671 19.9522 5.92254 19.8605 6.16421C19.7689 6.40588 19.623 6.62671 19.423 6.82671L8.24805 18.0017H3.99805Z" fill="#693392"/>
</g>
</svg>
