<svg width="109" height="82" viewBox="0 0 109 82" fill="none" xmlns="http://www.w3.org/2000/svg">
<g clip-path="url(#clip0_1203_9307)">
<g opacity="0.4">
<path d="M98.3527 20.808L98.2701 20.7608L89.1221 15.4803L98.3497 10.1526L107.577 15.4803L98.3497 20.808H98.3527ZM89.777 15.4803L98.3527 20.4304L106.928 15.4803L98.3527 10.5302L89.777 15.4803Z" fill="#B283D5"/>
<path d="M80.546 20.808L80.4634 20.7608L71.3154 15.4803L80.5431 10.1526L80.6257 10.1998L89.7737 15.4803L80.546 20.808ZM71.9703 15.4803L80.546 20.4304L89.1217 15.4803L80.546 10.5302L71.9703 15.4803Z" fill="#B283D5"/>
<path d="M89.4493 25.9499L89.3667 25.9027L80.2188 20.6222L89.4464 15.2944L89.529 15.3416L98.677 20.6222L89.4493 25.9499ZM80.8737 20.6222L89.4493 25.5723L98.025 20.6222L89.4493 15.672L80.8737 20.6222Z" fill="#B283D5"/>
<path d="M98.3526 31.0888L89.125 25.7611L98.3526 20.4334L107.58 25.7611L98.3526 31.0888ZM89.777 25.7611L98.3526 30.7112L106.928 25.7611L98.3526 20.811L89.777 25.7611Z" fill="#B283D5"/>
<path d="M62.7433 20.808L62.6607 20.7608L53.5127 15.4803L62.7403 10.1526L71.9709 15.4803L62.7433 20.808ZM54.1676 15.4803L62.7433 20.4304L71.319 15.4803L62.7433 10.5302L54.1676 15.4803Z" fill="#B283D5"/>
<path d="M71.6466 25.9499L71.564 25.9027L62.416 20.6222L71.6437 15.2944L71.7263 15.3416L80.8742 20.6222L71.6466 25.9499ZM63.0709 20.6222L71.6466 25.5723L80.2223 20.6222L71.6466 15.672L63.0709 20.6222Z" fill="#B283D5"/>
<path d="M80.546 31.0888L71.3154 25.7611L80.5431 20.4333L80.6257 20.4805L89.7737 25.7611L80.546 31.0888ZM71.9703 25.7611L80.546 30.7112L89.1217 25.7611L80.546 20.811L71.9703 25.7611Z" fill="#B283D5"/>
<path d="M89.4493 36.2277L80.2217 30.9L89.4493 25.5723L98.677 30.9L89.4493 36.2277ZM80.8736 30.9L89.4493 35.8501L98.025 30.9L89.4493 25.9499L80.8736 30.9Z" fill="#B283D5"/>
<path d="M98.3527 41.3696L98.2701 41.3224L89.1221 36.0419L98.3497 30.7142L98.4323 30.7614L107.58 36.0419L98.3527 41.3696ZM89.777 36.0419L98.3527 40.992L106.928 36.0419L98.3527 31.0918L89.777 36.0419Z" fill="#B283D5"/>
<path d="M44.9366 20.808L44.854 20.7608L35.7061 15.4803L44.9337 10.1526L45.0163 10.1998L54.1643 15.4803L44.9366 20.808ZM36.361 15.4803L44.9366 20.4304L53.5123 15.4803L44.9366 10.5302L36.361 15.4803Z" fill="#B283D5"/>
<path d="M53.84 25.9499L53.7574 25.9027L44.6094 20.6222L53.837 15.2945L53.9196 15.3417L63.0676 20.6222L53.84 25.9499ZM45.2643 20.6222L53.84 25.5723L62.4157 20.6222L53.84 15.6721L45.2643 20.6222Z" fill="#B283D5"/>
<path d="M62.7433 31.0888L62.6607 31.0416L53.5127 25.7611L62.7403 20.4334L62.8229 20.4806L71.9709 25.7611L62.7433 31.0888ZM54.1676 25.7611L62.7433 30.7112L71.319 25.7611L62.7433 20.811L54.1676 25.7611Z" fill="#B283D5"/>
<path d="M71.6466 36.2277L71.564 36.1805L62.416 30.9L71.6437 25.5723L80.8742 30.9L71.6466 36.2277ZM63.0709 30.9L71.6466 35.8501L80.2223 30.9L71.6466 25.9499L63.0709 30.9Z" fill="#B283D5"/>
<path d="M80.546 41.3697L71.3184 36.042L80.546 30.7142L89.7736 36.042L80.546 41.3697ZM71.9703 36.042L80.546 40.9921L89.1217 36.042L80.546 31.0918L71.9703 36.042Z" fill="#B283D5"/>
<path d="M89.4493 46.5086L89.3667 46.4614L80.2188 41.1809L89.4464 35.8531L89.529 35.9003L98.677 41.1809L89.4493 46.5086ZM80.8737 41.1809L89.4493 46.131L98.025 41.1809L89.4493 36.2308L80.8737 41.1809Z" fill="#B283D5"/>
<path d="M98.3527 51.6475L98.2701 51.6003L89.1221 46.3198L98.3497 40.992L98.4323 41.0392L107.58 46.3198L98.3527 51.6475ZM89.777 46.3198L98.3527 51.2699L106.928 46.3198L98.3527 41.3696L89.777 46.3198Z" fill="#B283D5"/>
<path d="M27.1339 20.808L27.0513 20.7608L17.9033 15.4803L27.131 10.1526L36.3616 15.4803L27.1339 20.808ZM18.5582 15.4803L27.1339 20.4304L35.7096 15.4803L27.1339 10.5302L18.5582 15.4803Z" fill="#B283D5"/>
<path d="M36.0363 25.9499L35.9537 25.9027L26.8057 20.6222L36.0333 15.2944L36.1159 15.3416L45.2639 20.6222L36.0363 25.9499ZM27.4606 20.6222L36.0363 25.5723L44.6119 20.6222L36.0363 15.672L27.4606 20.6222Z" fill="#B283D5"/>
<path d="M44.9366 31.0888L35.7061 25.7611L44.9337 20.4334L45.0163 20.4806L54.1643 25.7611L44.9366 31.0888ZM36.361 25.7611L44.9366 30.7112L53.5123 25.7611L44.9366 20.811L36.361 25.7611Z" fill="#B283D5"/>
<path d="M53.84 36.2278L53.7574 36.1806L44.6094 30.9L53.837 25.5723L53.9196 25.6195L63.0676 30.9L53.84 36.2278ZM45.2643 30.9L53.84 35.8502L62.4157 30.9L53.84 25.9499L45.2643 30.9Z" fill="#B283D5"/>
<path d="M62.7433 41.3696L62.6607 41.3224L53.5127 36.0419L62.7403 30.7142L62.8229 30.7614L71.9709 36.0419L62.7433 41.3696ZM54.1676 36.0419L62.7433 40.992L71.319 36.0419L62.7433 31.0918L54.1676 36.0419Z" fill="#B283D5"/>
<path d="M71.6466 46.5086L71.564 46.4614L62.416 41.1809L71.6437 35.8531L80.8713 41.1809L71.6437 46.5086H71.6466ZM63.0709 41.1809L71.6466 46.131L80.2223 41.1809L71.6466 36.2308L63.0709 41.1809Z" fill="#B283D5"/>
<path d="M80.546 51.6475L71.3184 46.3198L80.546 40.9921L80.6286 41.0393L89.7766 46.3198L80.549 51.6475H80.546ZM71.9703 46.3198L80.546 51.2699L89.1217 46.3198L80.546 41.3697L71.9703 46.3198Z" fill="#B283D5"/>
<path d="M89.4493 56.7863L80.2188 51.4586L89.4464 46.1309L89.529 46.1781L98.677 51.4586L89.4493 56.7863ZM80.8737 51.4586L89.4493 56.4087L98.025 51.4586L89.4493 46.5085L80.8737 51.4586Z" fill="#B283D5"/>
<path d="M98.3527 61.9283L98.2701 61.8811L89.1221 56.6006L98.3497 51.2728L98.4323 51.32L107.58 56.6006L98.3527 61.9283ZM89.777 56.6006L98.3527 61.5507L106.928 56.6006L98.3527 51.6504L89.777 56.6006Z" fill="#B283D5"/>
<path d="M9.32725 20.808L0.0996094 15.4803L9.32725 10.1526L9.40985 10.1998L18.5578 15.4803L9.3302 20.808H9.32725ZM0.751562 15.4803L9.32725 20.4304L17.9029 15.4803L9.32725 10.5302L0.751562 15.4803Z" fill="#B283D5"/>
<path d="M18.2306 25.9499L18.148 25.9027L9 20.6222L18.2276 15.2945L18.3102 15.3417L27.4582 20.6222L18.2306 25.9499ZM9.6549 20.6222L18.2306 25.5723L26.8063 20.6222L18.2306 15.6721L9.6549 20.6222Z" fill="#B283D5"/>
<path d="M27.1339 31.0888L27.0513 31.0416L17.9033 25.7611L27.131 20.4333L27.2136 20.4805L36.3616 25.7611L27.1339 31.0888ZM18.5582 25.7611L27.1339 30.7112L35.7096 25.7611L27.1339 20.811L18.5582 25.7611Z" fill="#B283D5"/>
<path d="M36.0363 36.2277L35.9537 36.1805L26.8057 30.9L36.0333 25.5723L45.2639 30.9L36.0363 36.2277ZM27.4606 30.9L36.0363 35.8501L44.6119 30.9L36.0363 25.9499L27.4606 30.9Z" fill="#B283D5"/>
<path d="M44.9396 41.3667L44.857 41.3195L35.709 36.039L44.9366 30.7112L45.0192 30.7584L54.1672 36.039L44.9396 41.3667ZM36.3639 36.039L44.9396 40.9891L53.5153 36.039L44.9396 31.0888L36.3639 36.039Z" fill="#B283D5"/>
<path d="M53.84 46.5085L44.6094 41.1808L53.837 35.8531L53.9196 35.9003L63.0676 41.1808L53.84 46.5085ZM45.2643 41.1808L53.84 46.1309L62.4157 41.1808L53.84 36.2307L45.2643 41.1808Z" fill="#B283D5"/>
<path d="M62.7433 51.6475L62.6607 51.6003L53.5127 46.3198L62.7403 40.992L62.8229 41.0392L71.9709 46.3198L62.7433 51.6475ZM54.1676 46.3198L62.7433 51.2699L71.319 46.3198L62.7433 41.3696L54.1676 46.3198Z" fill="#B283D5"/>
<path d="M71.6466 56.7863L62.4189 51.4586L71.6466 46.1309L80.8742 51.4586L71.6466 56.7863ZM63.0709 51.4586L71.6466 56.4087L80.2223 51.4586L71.6466 46.5085L63.0709 51.4586Z" fill="#B283D5"/>
<path d="M80.546 61.9284L80.4634 61.8812L71.3154 56.6007L80.5431 51.2729L89.7737 56.6007L80.546 61.9284ZM71.9703 56.6007L80.546 61.5508L89.1217 56.6007L80.546 51.6506L71.9703 56.6007Z" fill="#B283D5"/>
<path d="M89.4493 67.0673L89.3667 67.0201L80.2188 61.7396L89.4464 56.4119L89.529 56.4591L98.677 61.7396L89.4493 67.0673ZM80.8737 61.7396L89.4493 66.6897L98.025 61.7396L89.4493 56.7895L80.8737 61.7396Z" fill="#B283D5"/>
<path d="M98.3527 72.2061L89.1221 66.8784L98.3497 61.5507L98.4323 61.5979L107.58 66.8784L98.3527 72.2061ZM89.777 66.8784L98.3527 71.8285L106.928 66.8784L98.3527 61.9283L89.777 66.8784Z" fill="#B283D5"/>
<path d="M9.3302 31.0888L0.0996094 25.7611L9.32725 20.4334L9.40985 20.4806L18.5578 25.7611L9.3302 31.0888ZM0.751562 25.7611L9.32725 30.7112L17.9029 25.7611L9.32725 20.811L0.751562 25.7611Z" fill="#B283D5"/>
<path d="M18.2306 36.2278L18.148 36.1806L9 30.9L18.2276 25.5723L18.3102 25.6195L27.4582 30.9L18.2306 36.2278ZM9.6549 30.9L18.2306 35.8502L26.8063 30.9L18.2306 25.9499L9.6549 30.9Z" fill="#B283D5"/>
<path d="M27.1339 41.3666L27.0513 41.3194L17.9033 36.0389L27.131 30.7112L27.2136 30.7584L36.3616 36.0389L27.1339 41.3666ZM18.5582 36.0389L27.1339 40.989L35.7096 36.0389L27.1339 31.0888L18.5582 36.0389Z" fill="#B283D5"/>
<path d="M36.0363 46.5086L35.9537 46.4614L26.8057 41.1809L36.0333 35.8531L36.1159 35.9003L45.2639 41.1809L36.0363 46.5086ZM27.4606 41.1809L36.0363 46.131L44.6119 41.1809L36.0363 36.2308L27.4606 41.1809Z" fill="#B283D5"/>
<path d="M44.9396 51.6475L44.857 51.6003L35.709 46.3198L44.9366 40.992L54.1672 46.3198L44.9396 51.6475ZM36.3639 46.3198L44.9396 51.2699L53.5153 46.3198L44.9396 41.3696L36.3639 46.3198Z" fill="#B283D5"/>
<path d="M53.84 56.7864L44.6094 51.4587L53.837 46.131L53.9196 46.1782L63.0676 51.4587L53.84 56.7864ZM45.2643 51.4587L53.84 56.4088L62.4157 51.4587L53.84 46.5086L45.2643 51.4587Z" fill="#B283D5"/>
<path d="M62.7433 61.9283L53.5156 56.6006L62.7433 51.2728L71.9709 56.6006L62.7433 61.9283ZM54.1676 56.6006L62.7433 61.5507L71.319 56.6006L62.7433 51.6504L54.1676 56.6006Z" fill="#B283D5"/>
<path d="M71.6466 67.0673L71.564 67.0201L62.416 61.7396L71.6437 56.4119L71.7263 56.4591L80.8742 61.7396L71.6466 67.0673ZM63.0709 61.7396L71.6466 66.6897L80.2223 61.7396L71.6466 56.7895L63.0709 61.7396Z" fill="#B283D5"/>
<path d="M80.549 72.2062L80.4663 72.159L71.3184 66.8785L80.546 61.5508L80.6286 61.598L89.7766 66.8785L80.549 72.2062ZM71.9733 66.8785L80.549 71.8286L89.1246 66.8785L80.549 61.9284L71.9733 66.8785Z" fill="#B283D5"/>
<path d="M89.4493 77.3481L89.3667 77.3009L80.2188 72.0204L89.4464 66.6926L98.677 72.0204L89.4493 77.3481ZM80.8737 72.0204L89.4493 76.9705L98.025 72.0204L89.4493 67.0702L80.8737 72.0204Z" fill="#B283D5"/>
<path d="M98.3527 82.4869L89.1221 77.1592L98.3497 71.8315L98.4323 71.8787L107.58 77.1592L98.3527 82.4869ZM89.777 77.1592L98.3527 82.1093L106.928 77.1592L98.3527 72.2091L89.777 77.1592Z" fill="#B283D5"/>
<path d="M9.3302 41.3667L9.2476 41.3195L0.0996094 36.039L9.32725 30.7112L9.40985 30.7584L18.5578 36.039L9.3302 41.3667ZM0.754512 36.039L9.3302 40.9891L17.9059 36.039L9.3302 31.0888L0.754512 36.039Z" fill="#B283D5"/>
<path d="M18.2306 46.5085L9 41.1808L18.2276 35.8531L18.3102 35.9003L27.4582 41.1808L18.2306 46.5085ZM9.6549 41.1808L18.2306 46.1309L26.8063 41.1808L18.2306 36.2307L9.6549 41.1808Z" fill="#B283D5"/>
<path d="M27.1339 51.6475L27.0513 51.6003L17.9033 46.3198L27.131 40.9921L27.2136 41.0393L36.3616 46.3198L27.1339 51.6475ZM18.5582 46.3198L27.1339 51.2699L35.7096 46.3198L27.1339 41.3697L18.5582 46.3198Z" fill="#B283D5"/>
<path d="M36.0363 56.7863L35.9537 56.7391L26.8057 51.4586L36.0333 46.1309L36.1159 46.1781L45.2639 51.4586L36.0363 56.7863ZM27.4606 51.4586L36.0363 56.4087L44.6119 51.4586L36.0363 46.5085L27.4606 51.4586Z" fill="#B283D5"/>
<path d="M44.9396 61.9283L44.857 61.8811L35.709 56.6006L44.9366 51.2728L54.1672 56.6006L44.9396 61.9283ZM36.3639 56.6006L44.9396 61.5507L53.5153 56.6006L44.9396 51.6504L36.3639 56.6006Z" fill="#B283D5"/>
<path d="M53.84 67.0672L53.7574 67.02L44.6094 61.7395L53.837 56.4117L63.0647 61.7395L53.837 67.0672H53.84ZM45.2643 61.7395L53.84 66.6896L62.4157 61.7395L53.84 56.7893L45.2643 61.7395Z" fill="#B283D5"/>
<path d="M62.7433 72.2061L53.5156 66.8784L62.7433 61.5507L62.8259 61.5979L71.9739 66.8784L62.7462 72.2061H62.7433ZM54.1676 66.8784L62.7433 71.8285L71.319 66.8784L62.7433 61.9283L54.1676 66.8784Z" fill="#B283D5"/>
<path d="M71.6466 77.3481L71.564 77.3009L62.416 72.0204L71.6437 66.6926L71.7263 66.7398L80.8742 72.0204L71.6466 77.3481ZM63.0709 72.0204L71.6466 76.9705L80.2223 72.0204L71.6466 67.0702L63.0709 72.0204Z" fill="#B283D5"/>
<path d="M80.549 82.487L80.4663 82.4398L71.3184 77.1593L80.546 71.8315L80.6286 71.8787L89.7766 77.1593L80.549 82.487ZM89.1246 77.1593L80.549 72.2091L71.9733 77.1593L80.549 82.1094" fill="#B283D5"/>
<path d="M9.3302 51.6475L9.2476 51.6003L0.0996094 46.3198L9.32725 40.992L18.5578 46.3198L9.3302 51.6475ZM0.754512 46.3198L9.3302 51.2699L17.9059 46.3198L9.3302 41.3696L0.754512 46.3198Z" fill="#B283D5"/>
<path d="M18.2306 56.7864L18.148 56.7392L9 51.4587L18.2276 46.131L18.3102 46.1782L27.4582 51.4587L18.2306 56.7864ZM9.6549 51.4587L18.2306 56.4088L26.8063 51.4587L18.2306 46.5086L9.6549 51.4587Z" fill="#B283D5"/>
<path d="M27.1339 61.9284L17.9033 56.6007L27.131 51.2729L27.2136 51.3202L36.3616 56.6007L27.1339 61.9284ZM18.5582 56.6007L27.1339 61.5508L35.7096 56.6007L27.1339 51.6506L18.5582 56.6007Z" fill="#B283D5"/>
<path d="M36.0363 67.0673L35.9537 67.0201L26.8057 61.7396L36.0333 56.4119L36.1159 56.4591L45.2639 61.7396L36.0363 67.0673ZM27.4606 61.7396L36.0363 66.6897L44.6119 61.7396L36.0363 56.7895L27.4606 61.7396Z" fill="#B283D5"/>
<path d="M44.9396 72.2061L44.857 72.1589L35.709 66.8784L44.9366 61.5507L45.0192 61.5979L54.1672 66.8784L44.9396 72.2061ZM36.3639 66.8784L44.9396 71.8285L53.5153 66.8784L44.9396 61.9283L36.3639 66.8784Z" fill="#B283D5"/>
<path d="M53.8399 77.3451L44.6123 72.0173L53.8399 66.6896L63.0676 72.0173L53.8399 77.3451ZM45.2643 72.0173L53.8399 76.9675L62.4156 72.0173L53.8399 67.0672L45.2643 72.0173Z" fill="#B283D5"/>
<path d="M62.7433 82.4869L62.6607 82.4397L53.5127 77.1592L62.7403 71.8315L62.8229 71.8787L71.9709 77.1592L62.7433 82.4869ZM54.1676 77.1592L62.7433 82.1093L71.319 77.1592L62.7433 72.2091L54.1676 77.1592Z" fill="#B283D5"/>
<path d="M9.3302 61.9253L9.2476 61.8781L0.0996094 56.5976L9.32725 51.2699L9.40985 51.3171L18.5578 56.5976L9.3302 61.9253ZM0.754512 56.5976L9.3302 61.5477L17.9059 56.5976L9.3302 51.6475L0.754512 56.5976Z" fill="#B283D5"/>
<path d="M18.2335 67.0672L18.1509 67.02L9.00293 61.7395L18.2306 56.4117L27.4612 61.7395L18.2335 67.0672ZM9.65783 61.7395L18.2335 66.6896L26.8092 61.7395L18.2335 56.7893L9.65783 61.7395Z" fill="#B283D5"/>
<path d="M27.1339 72.2062L17.9033 66.8785L27.131 61.5508L27.2136 61.598L36.3616 66.8785L27.1339 72.2062ZM18.5582 66.8785L27.1339 71.8286L35.7096 66.8785L27.1339 61.9284L18.5582 66.8785Z" fill="#B283D5"/>
<path d="M36.0363 77.3451L35.9537 77.2979L26.8057 72.0174L36.0333 66.6897L36.1159 66.7369L45.2639 72.0174L36.0363 77.3451ZM27.4606 72.0174L36.0363 76.9675L44.6119 72.0174L36.0363 67.0673L27.4606 72.0174Z" fill="#B283D5"/>
<path d="M44.9396 82.487L35.7119 77.1593L44.9396 71.8315L54.1672 77.1593L44.9396 82.487ZM36.3639 77.1593L44.9396 82.1094L53.5152 77.1593L44.9396 72.2091L36.3639 77.1593Z" fill="#B283D5"/>
<path d="M9.3302 72.2061L9.2476 72.1589L0.0996094 66.8784L9.32725 61.5507L9.40985 61.5979L18.5578 66.8784L9.3302 72.2061ZM0.754512 66.8784L9.3302 71.8285L17.9059 66.8784L9.3302 61.9283L0.754512 66.8784Z" fill="#B283D5"/>
<path d="M18.2335 77.3451L18.1509 77.2979L9.00293 72.0173L18.2306 66.6896L27.4612 72.0173L18.2335 77.3451ZM9.65783 72.0173L18.2335 76.9675L26.8092 72.0173L18.2335 67.0672L9.65783 72.0173Z" fill="#B283D5"/>
<path d="M27.1339 82.487L27.0513 82.4398L17.9033 77.1593L27.131 71.8315L27.2136 71.8787L36.3616 77.1593L27.1339 82.487ZM18.5582 77.1593L27.1339 82.1094L35.7096 77.1593L27.1339 72.2091L18.5582 77.1593Z" fill="#B283D5"/>
<path d="M9.3302 82.4869L9.2476 82.4397L0.0996094 77.1562L9.32725 71.8285L9.40985 71.8757L18.5578 77.1562L9.3302 82.484V82.4869ZM0.754512 77.1592L9.3302 82.1093L17.9059 77.1592L9.3302 72.2091L0.754512 77.1592Z" fill="#B283D5"/>
</g>
<path d="M98.3944 46.1339L73.3635 31.6375C72.0036 30.8499 69.6259 30.9443 68.0535 31.8499L15.5197 62.0846C13.9473 62.9903 13.7733 64.362 15.1332 65.1497L40.1641 79.646C41.524 80.4337 43.9018 80.3393 45.4741 79.4336L98.0079 49.2019C99.5803 48.2962 99.7544 46.9245 98.3944 46.1368V46.1339Z" fill="#C49CD1" fill-opacity="0.5"/>
<path d="M42.4859 77.0796C41.5419 77.0796 40.6362 76.8819 39.9459 76.4836L14.9151 61.9873C14.1805 61.5625 13.7793 60.9548 13.7793 60.2763C13.7793 59.4916 14.3339 58.7216 15.3015 58.1641L67.8354 27.9294C69.5552 26.9382 72.0804 26.8467 73.582 27.717L98.6128 42.2133C99.3474 42.6381 99.7486 43.2458 99.7486 43.9244C99.7486 44.7091 99.194 45.479 98.2264 46.0366L45.6925 76.2712C44.7633 76.8052 43.5951 77.0796 42.4829 77.0796H42.4859ZM71.0568 28.0061C70.0862 28.0061 69.0567 28.2391 68.272 28.6905L15.7381 58.9252C15.0596 59.3146 14.6555 59.822 14.6555 60.2792C14.6555 60.7335 15.036 61.0462 15.3546 61.2321L40.3855 75.7284C41.6009 76.4335 43.8311 76.3361 45.2559 75.516L97.7898 45.2814C98.4683 44.892 98.8725 44.3846 98.8725 43.9273C98.8725 43.473 98.4919 43.1603 98.1733 42.9744L73.1424 28.4781C72.5967 28.1624 71.8444 28.0061 71.0538 28.0061H71.0568Z" fill="#B283D5"/>
<path d="M39.438 70.737L13.3864 55.6506C12.5309 55.155 12.1327 54.4853 12.1592 53.7921H12.1533L12.1651 50.0131L13.6136 51.7094C13.708 51.6474 13.8024 51.5855 13.9056 51.5265L67.1976 20.8581C69.3128 19.6398 72.5106 19.5129 74.3396 20.572L100.025 35.4459C100.545 34.8766 101.636 33.6759 101.636 33.6759L101.624 37.3723C101.663 38.2042 101.07 39.0922 99.8749 39.7795L46.5829 70.4478C44.4678 71.6662 41.27 71.7931 39.4409 70.734L39.438 70.737Z" fill="#D1ADED"/>
<path d="M25.3511 61.4827L26.8527 62.35C27.0533 62.4651 27.2126 62.3441 27.2126 62.0786C27.2126 61.8131 27.0503 61.5034 26.8527 61.3883L25.3511 60.521C25.1505 60.406 24.9912 60.5269 24.9912 60.7924C24.9912 61.0579 25.1535 61.3677 25.3511 61.4827Z" fill="#693392"/>
<path d="M67.1978 20.8581C69.313 19.6398 72.5108 19.5129 74.3398 20.572L100.026 35.4459C100.545 34.8766 101.636 33.6759 101.636 33.6759L101.624 37.3723C101.663 38.2042 101.07 39.0922 99.8751 39.7795L46.5831 70.4478C45.4798 71.0821 44.0815 71.4184 42.7363 71.4479L42.7865 34.9061L67.1978 20.8581Z" fill="url(#paint0_linear_1203_9307)"/>
<path d="M100.4 31.8588L74.3482 16.7724C72.5191 15.7134 69.3213 15.8402 67.2062 17.0586L13.9171 47.7269C11.802 48.9453 11.5689 50.789 13.3979 51.851L39.4495 66.9374C41.2785 67.9964 44.4763 67.8696 46.5915 66.6512L99.8835 35.9829C101.999 34.7645 102.232 32.9208 100.403 31.8588H100.4Z" fill="#D4ECFF"/>
<path d="M39.4289 67.3386L13.3773 52.2522C12.4333 51.7065 12.0439 50.9513 12.1708 50.1784C12.218 50.8038 12.6192 51.3967 13.395 51.8481L39.4466 66.9344C41.2756 67.9935 44.4734 67.8666 46.5886 66.6483L99.8806 35.9799C100.904 35.3899 101.482 34.6524 101.603 33.9297C101.665 34.7763 101.075 35.6849 99.8599 36.3841L46.5679 67.0524C44.4528 68.2708 41.2549 68.3976 39.4259 67.3386H39.4289Z" fill="#B283D5"/>
<path d="M98.3934 32.4517L73.3626 17.9554C72.0026 17.1677 69.6249 17.2621 68.0525 18.1678L15.5187 48.4025C13.9463 49.3081 13.7723 50.6799 15.1322 51.4675L40.1631 65.9639C41.5231 66.7516 43.9008 66.6572 45.4731 65.7515L98.007 35.5168C99.5793 34.6112 99.7534 33.2394 98.3934 32.4517Z" fill="url(#paint1_radial_1203_9307)"/>
<path d="M46.4703 58.4354L28.8086 48.2373L29.9355 47.5853L47.5972 57.7835L46.4703 58.4354Z" fill="#D4ECFF"/>
<path d="M34.1808 55.4618L25.2363 50.2964L26.3632 49.6474L35.3077 54.8099L34.1808 55.4618Z" fill="#D4ECFF"/>
<path d="M38.52 57.9663L35.6201 56.2907L36.747 55.6417L39.6469 57.3173L38.52 57.9663Z" fill="#FF2C9C"/>
<path d="M42.9008 60.4946L40.001 58.8219L41.1279 58.17L44.0277 59.8456L42.9008 60.4946Z" fill="#B283D5"/>
<path d="M34.2815 53.4588L27.0215 49.2668L28.1513 48.6148L35.4084 52.8068L34.2815 53.4588Z" fill="#B283D5"/>
<path d="M43.1398 58.5741L35.8828 54.3821L37.0097 53.7302L44.2697 57.9222L43.1398 58.5741Z" fill="#D4ECFF"/>
<path d="M37.7675 49.6148C37.4047 49.8242 36.8147 49.8242 36.4518 49.6148C36.089 49.4053 36.089 49.0661 36.4518 48.8566C36.8147 48.6472 37.4047 48.6472 37.7675 48.8566C38.1304 49.0661 38.1304 49.4053 37.7675 49.6148Z" fill="#FF2C9C"/>
<path d="M39.7324 50.7506C39.3695 50.96 38.7795 50.96 38.4167 50.7506C38.0538 50.5411 38.0538 50.2019 38.4167 49.9924C38.7795 49.7829 39.3695 49.7829 39.7324 49.9924C40.0952 50.2019 40.0952 50.5411 39.7324 50.7506Z" fill="#B283D5"/>
<path d="M41.6972 51.8834C41.3344 52.0928 40.7444 52.0928 40.3815 51.8834C40.0187 51.6739 40.0187 51.3346 40.3815 51.1252C40.7444 50.9157 41.3344 50.9157 41.6972 51.1252C42.0601 51.3346 42.0601 51.6739 41.6972 51.8834Z" fill="#D4ECFF"/>
<path d="M43.665 53.0191C43.3021 53.2285 42.7121 53.2285 42.3493 53.0191C41.9864 52.8096 41.9864 52.4704 42.3493 52.2609C42.7121 52.0515 43.3021 52.0515 43.665 52.2609C44.0278 52.4704 44.0278 52.8096 43.665 53.0191Z" fill="#FF2C9C"/>
<path d="M45.6289 54.1548C45.266 54.3643 44.676 54.3643 44.3132 54.1548C43.9503 53.9454 43.9503 53.6061 44.3132 53.3967C44.676 53.1872 45.266 53.1872 45.6289 53.3967C45.9917 53.6061 45.9917 53.9454 45.6289 54.1548Z" fill="#B283D5"/>
<path d="M85.1338 32.5638L82.1602 30.8469L83.3166 30.1802L86.2902 31.8971L85.1338 32.5638Z" fill="#FF2C9C"/>
<path d="M89.2754 34.9533L86.3018 33.2364L87.4582 32.5697L90.4318 34.2866L89.2754 34.9533Z" fill="#B283D5"/>
<path d="M71.8496 24.823L68.876 23.1061L70.0324 22.4394L73.006 24.1563L71.8496 24.823Z" fill="#B283D5"/>
<path d="M84.4699 34.2955L80.3311 31.903L81.4845 31.2363L85.6263 33.6258L84.4699 34.2955Z" fill="#B283D5"/>
<path d="M87.4461 36.0124L85.6289 34.9622L86.7824 34.2955L88.5996 35.3428L87.4461 36.0124Z" fill="#D4ECFF"/>
<path d="M93.0513 58.8249C92.9894 58.8249 92.9245 58.8102 92.8655 58.7777C92.6678 58.6745 92.5911 58.4296 92.6944 58.232C93.1044 57.4473 93.7062 56.7835 94.3464 56.4148C94.7476 56.1817 95.137 56.0726 95.5087 56.0932C96.0367 56.1227 96.6798 55.7274 97.2433 55.046C97.5648 54.6595 97.9188 54.3527 98.2935 54.1344C98.6947 53.9014 99.09 53.7922 99.4558 53.8128C99.9868 53.8394 100.627 53.447 101.19 52.7656C101.512 52.3791 101.866 52.0723 102.241 51.854C102.642 51.621 103.031 51.5148 103.406 51.5325C103.925 51.5649 104.574 51.1667 105.14 50.4852C105.462 50.0988 105.816 49.792 106.191 49.5737C106.784 49.2315 107.374 49.1577 107.854 49.3672C108.058 49.4557 108.152 49.6946 108.064 49.8982C107.975 50.1017 107.736 50.1961 107.533 50.1076C107.294 50.0044 106.961 50.0634 106.595 50.2728C106.309 50.438 106.02 50.6888 105.763 50.9985C105.025 51.8894 104.158 52.3762 103.365 52.3378C103.155 52.329 102.907 52.4027 102.645 52.5532C102.359 52.7184 102.07 52.9721 101.813 53.2789C101.075 54.1698 100.205 54.6536 99.4145 54.6182C99.208 54.6064 98.9572 54.6831 98.6947 54.8336C98.4085 54.9988 98.1194 55.2525 97.8628 55.5593C97.1223 56.4502 96.2491 56.934 95.4644 56.8986C95.2491 56.8868 95.0072 56.9635 94.7446 57.1139C94.2343 57.4089 93.7475 57.9517 93.4053 58.6037C93.3345 58.7423 93.1929 58.822 93.0484 58.822L93.0513 58.8249Z" fill="#B283D5"/>
<path d="M69.3271 74.3508C69.3271 74.8464 68.979 75.4511 68.5483 75.6989C68.1176 75.9467 67.7695 75.7461 67.7695 75.2505C67.7695 74.7549 68.1176 74.1531 68.5483 73.9024C68.979 73.6516 69.3271 73.8552 69.3271 74.3508Z" fill="#B283D5"/>
<path d="M71.8496 72.8964C71.8496 73.392 71.5015 73.9968 71.0708 74.2446C70.6401 74.4924 70.292 74.2918 70.292 73.7962C70.292 73.3006 70.6401 72.6958 71.0708 72.448C71.5015 72.2002 71.8496 72.4008 71.8496 72.8964Z" fill="#B283D5"/>
<path d="M74.3691 71.4391C74.3691 71.9347 74.021 72.5395 73.5903 72.7873C73.1596 73.0351 72.8115 72.8345 72.8115 72.3389C72.8115 71.8433 73.1596 71.2385 73.5903 70.9907C74.021 70.7429 74.3691 70.9435 74.3691 71.4391Z" fill="#B283D5"/>
<path d="M76.8877 69.9848C76.8877 70.4804 76.5396 71.0851 76.1089 71.3329C75.6782 71.5807 75.3301 71.3801 75.3301 70.8845C75.3301 70.3889 75.6782 69.7842 76.1089 69.5364C76.5396 69.2886 76.8877 69.4892 76.8877 69.9848Z" fill="#B283D5"/>
<path d="M63.1855 8.48877C63.1855 8.98438 62.8374 9.58618 62.4067 9.83693C61.976 10.0847 61.6279 9.88413 61.6279 9.38853C61.6279 8.89292 61.976 8.29112 62.4067 8.04037C62.8374 7.79257 63.1855 7.99317 63.1855 8.48877Z" fill="#B283D5"/>
<path d="M65.3301 7.24977C65.3301 7.74537 64.982 8.34718 64.5513 8.59793C64.1206 8.84868 63.7725 8.64513 63.7725 8.14953C63.7725 7.65392 64.1206 7.05212 64.5513 6.80137C64.982 6.55062 65.3301 6.75417 65.3301 7.24977Z" fill="#B283D5"/>
<path d="M63.1855 6.01076C63.1855 6.50636 62.8374 7.10817 62.4067 7.35892C61.976 7.60672 61.6279 7.40612 61.6279 6.91052C61.6279 6.41491 61.976 5.81016 62.4067 5.56236C62.8374 5.31456 63.1855 5.51516 63.1855 6.01076Z" fill="#B283D5"/>
<path d="M65.3301 4.77176C65.3301 5.26736 64.982 5.86917 64.5513 6.11992C64.1206 6.37067 63.7725 6.16712 63.7725 5.67152C63.7725 5.17591 64.1206 4.57116 64.5513 4.32336C64.982 4.07556 65.3301 4.27616 65.3301 4.77176Z" fill="#B283D5"/>
<path d="M15.9209 37.0803L14.3662 37.9771V36.1806L15.9209 35.2838V37.0803Z" fill="#B283D5"/>
<path d="M18.4404 35.623L16.8857 36.5228V34.7262L18.4404 33.8294V35.623Z" fill="#B283D5"/>
<path d="M20.9629 34.1686L19.4053 35.0654V33.2718L20.9629 32.3721V34.1686Z" fill="#B283D5"/>
<path d="M23.4814 32.7143L21.9268 33.6111V31.8145L23.4814 30.9177V32.7143Z" fill="#B283D5"/>
<path d="M9.55466 25.0562L8 25.953V24.1594L9.55466 23.2597V25.0562Z" fill="#B283D5"/>
<path d="M11.7138 23.7936L10.1592 24.6934V22.8968L11.7138 22V23.7936Z" fill="#B283D5"/>
<path d="M9.5693 27.3867L8.01465 28.2835V26.487L9.5693 25.5902V27.3867Z" fill="#B283D5"/>
<path d="M11.7138 26.1477L10.1592 27.0445V25.2509L11.7138 24.3512V26.1477Z" fill="#B283D5"/>
<path d="M89.0928 2.04301C88.8184 2.20231 88.5618 2.42946 88.3317 2.69496C88.2963 1.19635 87.2225 0.5975 85.8979 1.36155C85.4731 1.6064 85.0748 1.96336 84.7267 2.38226C84.1367 1.3527 82.9184 1.11375 81.5024 1.93091C79.5141 3.07846 77.9004 5.87212 77.9004 8.17018C77.9004 8.35898 77.9152 8.53599 77.9358 8.70709C77.6526 8.63334 77.3045 8.69234 76.9269 8.91064C75.9741 9.45934 75.2041 10.7957 75.2041 11.8961C75.2041 12.9964 75.977 13.4419 76.9269 12.8902L89.0898 5.86917C90.0043 5.34112 90.7477 4.05492 90.7477 2.99881C90.7477 1.94271 90.0073 1.51495 89.0898 2.04301H89.0928Z" fill="#B283D5"/>
<path opacity="0.4" d="M20.7058 70.0717C20.4167 70.2399 20.1424 70.4788 19.9005 70.762C19.8621 69.1749 18.7234 68.5436 17.3222 69.3519C16.8737 69.6115 16.4519 69.9862 16.0831 70.4316C15.4607 69.3401 14.1656 69.0894 12.67 69.9537C10.5637 71.1691 8.85561 74.128 8.85561 76.5588C8.85561 76.7594 8.87036 76.9453 8.89396 77.1282C8.59306 77.0515 8.22431 77.1134 7.82606 77.3435C6.81715 77.9247 6 79.3407 6 80.503C6 81.6653 6.81715 82.1373 7.82606 81.5561L20.7029 74.1221C21.6705 73.5616 22.4581 72.2016 22.4581 71.0836C22.4581 69.9655 21.6734 69.5112 20.7029 70.0717H20.7058Z" fill="#B283D5"/>
<path d="M37.007 31.9945L54.8959 21.6665C56.8311 20.5484 56.5892 18.5955 54.3531 17.3034C52.117 16.0113 48.7333 15.8727 46.7981 16.9907L28.9092 27.3187C26.974 28.4368 27.2159 30.3897 29.452 31.6818C31.6881 32.9739 35.0718 33.1125 37.007 31.9945Z" fill="#BA68C8"/>
<path d="M33.7151 30.0386C32.1604 30.0386 30.532 29.6551 29.231 28.9029C27.9153 28.1447 27.1631 27.1063 27.1631 26.0561C27.1631 25.1593 27.7059 24.351 28.6882 23.7817L46.5771 13.4537C48.6657 12.2471 52.1792 12.3858 54.5717 13.7664C55.8874 14.5245 56.6396 15.5629 56.6396 16.6131C56.6396 17.5129 56.0968 18.3182 55.1145 18.8876L37.2256 29.2156C36.2727 29.7672 35.0219 30.0386 33.718 30.0386H33.7151ZM50.0758 13.5127C48.9253 13.5127 47.8309 13.7428 47.0137 14.2148L29.1248 24.5428C28.4139 24.9528 28.0363 25.4779 28.0363 26.0591C28.0363 26.7877 28.6292 27.5488 29.6676 28.1477C31.7799 29.366 34.9718 29.5076 36.786 28.4604L54.6749 18.1324C55.3859 17.7223 55.7635 17.1972 55.7635 16.6161C55.7635 15.8874 55.1705 15.1263 54.1321 14.5275C52.9698 13.8578 51.483 13.5127 50.0758 13.5127Z" fill="#B283D5"/>
<path d="M41.2651 21.807V20.509L42.802 12.777L41.2857 11.8419L38.2501 13.5175L38.2295 23.4826C38.2295 24.1523 38.4802 24.6066 38.8667 24.7541L40.2178 25.6037L40.386 24.9606L40.619 23.7924C41.0114 23.2171 41.2651 22.4796 41.268 21.807H41.2651Z" fill="#5793CE"/>
<path d="M41.2595 25.5742C40.4217 26.0374 39.7432 25.5211 39.7461 24.4178L39.7668 14.4527L42.8023 12.7771L42.7817 22.7422C42.7817 23.8426 42.0973 25.1111 41.2595 25.5742Z" fill="#5793CE"/>
<path d="M49.4572 7.41097C49.4572 4.88281 47.6813 1.80594 45.4894 0.540389C44.3566 -0.114514 43.3329 -0.152864 42.6102 0.310288L30.5859 7.25462L36.7898 16.5767L48.2772 9.98928C48.2772 9.98928 48.2978 9.97748 48.3067 9.97158L48.3332 9.95683C49.0294 9.53203 49.4572 8.65293 49.4572 7.41097Z" fill="url(#paint2_linear_1203_9307)"/>
<path d="M43.7928 10.7887C43.7928 8.18678 41.9667 5.02437 39.7129 3.72341C38.6893 3.13341 37.7541 3.03016 37.0373 3.33401L37.0225 3.33991C37.0166 3.34286 37.0107 3.34581 37.0048 3.34876C36.9724 3.36351 36.9429 3.37826 36.9104 3.39301C32.6506 5.48752 27.9365 6.48757 23.1929 6.30172L21.8477 6.24862L32.7893 25.0019L33.3822 23.8573C35.5446 19.68 38.704 16.1017 42.5774 13.4408C43.3267 13.0189 43.7928 12.1014 43.7928 10.7887Z" fill="url(#paint3_linear_1203_9307)"/>
<path d="M34.0668 20.7657C34.0668 15.7743 30.5622 9.70609 26.2404 7.21037C24.084 5.96547 22.134 5.84452 20.718 6.65577L20.7092 6.65872C20.7062 6.65872 20.7033 6.66167 20.6974 6.66462L19.4141 7.41688L19.8625 7.32248C18.951 8.27238 18.4141 9.77099 18.4141 11.7268C18.4141 16.7183 21.9187 22.7864 26.2404 25.2822C27.9367 26.2616 29.5061 26.5448 30.7894 26.2262L30.5858 26.5241L31.7688 25.8338C31.7688 25.8338 31.7806 25.8279 31.7865 25.822L31.8278 25.7984C33.2143 24.9695 34.0668 23.2289 34.0668 20.7627V20.7657Z" fill="#D4ECFF"/>
<path d="M33.1523 21.2996C33.1523 16.3082 29.6477 10.24 25.3259 7.74432C23.199 6.51712 21.2726 6.38437 19.8596 7.15727L19.6619 7.27232C19.5941 7.31362 19.5292 7.36082 19.4643 7.40802L19.8625 7.32542C18.951 8.27532 18.4141 9.77393 18.4141 11.7298C18.4141 16.7212 21.9187 22.7894 26.2404 25.2851C27.9367 26.2645 29.5061 26.5477 30.7894 26.2291L30.6035 26.5035C32.17 25.7542 33.1523 23.9458 33.1523 21.3026V21.2996Z" fill="#B283D5"/>
<path d="M30.6021 26.5232C33.6583 24.7587 33.658 19.0367 30.6016 13.7427C27.5451 8.44878 22.5898 5.58757 19.5337 7.35204C16.4775 9.11652 16.4778 14.8385 19.5342 20.1325C22.5907 25.4264 27.546 28.2876 30.6021 26.5232Z" fill="#5793CE"/>
<path d="M29.9239 25.3479C32.6048 23.8001 32.6041 18.78 29.9223 14.135C27.2406 9.49013 22.8933 6.97941 20.2125 8.5272C17.5317 10.075 17.5324 15.0952 20.2141 19.7401C22.8959 24.385 27.2431 26.8957 29.9239 25.3479Z" fill="#173D7A"/>
<path d="M25.3855 24.7275C21.5947 22.5386 18.5178 17.2138 18.5178 12.836C18.5178 10.5379 19.3645 8.95674 20.7215 8.29004C19.1816 8.85349 18.1992 10.4966 18.1992 12.9747C18.1992 17.3525 21.2731 22.6773 25.0669 24.8662C26.8664 25.9046 28.5066 26.0521 29.7308 25.4473C28.5479 25.881 27.0345 25.6804 25.3884 24.7275H25.3855Z" fill="#B283D5"/>
<mask id="mask0_1203_9307" style="mask-type:luminance" maskUnits="userSpaceOnUse" x="18" y="8" width="14" height="18">
<path d="M29.9239 25.348C32.6048 23.8002 32.6041 18.78 29.9223 14.1351C27.2406 9.49018 22.8933 6.97946 20.2125 8.52724C17.5317 10.075 17.5324 15.0952 20.2141 19.7401C22.8959 24.385 27.2431 26.8957 29.9239 25.348Z" fill="white"/>
</mask>
<g mask="url(#mask0_1203_9307)">
<path d="M24.0371 15.2934L34.0023 7.59093L37.619 13.8686L25.9251 18.6653L24.0371 15.2934Z" fill="#D4ECFF"/>
<path d="M26.4388 17.7272C26.4388 18.6004 25.8252 18.9573 25.0671 18.5178C24.3089 18.0812 23.6953 17.0162 23.6953 16.143C23.6953 15.2698 24.3089 14.9129 25.0671 15.3524C25.8252 15.789 26.4388 16.854 26.4388 17.7272Z" fill="#5793CE"/>
</g>
<path d="M39.0117 21.8926L38.9586 21.8631C38.758 21.7481 38.5957 21.4413 38.5957 21.1758L38.5898 19.2553C38.5898 18.9898 38.7491 18.8689 38.9497 18.981L39.0028 19.0105C39.2034 19.1255 39.3657 19.4323 39.3657 19.6978L39.3716 21.6183C39.3716 21.8838 39.2123 22.0047 39.0117 21.8926Z" fill="#B283D5"/>
<g opacity="0.3">
<mask id="mask1_1203_9307" style="mask-type:luminance" maskUnits="userSpaceOnUse" x="32" y="38" width="51" height="28">
<path d="M39.146 42.1543L56.7074 51.8805L79.9152 38.5258L82.7265 44.2989L46.0992 65.3797L32.7002 58.5386L39.146 42.1543Z" fill="white"/>
</mask>
<g mask="url(#mask1_1203_9307)">
<path d="M55.0904 46.2489C54.1287 46.8035 54.1287 47.7062 55.0904 48.2608L71.4246 57.692C71.6901 57.8454 72.1179 57.8454 72.3804 57.692C72.646 57.5386 72.646 57.2908 72.3804 57.1403L56.0462 47.7091C55.6126 47.4584 55.6126 47.0513 56.0462 46.8005L57.6304 45.886C57.4534 45.6205 57.2941 45.3462 57.1377 45.0659L55.0904 46.2489Z" fill="#D4ECFF"/>
<path d="M78.2273 53.7655L61.8931 44.3343C60.9314 43.7797 59.3679 43.7797 58.4062 44.3343L57.1406 45.0659C57.297 45.3462 57.4563 45.6235 57.6333 45.886L59.3649 44.886C59.7986 44.6352 60.5036 44.6352 60.9373 44.886L77.2715 54.3172C77.537 54.4706 77.9648 54.4706 78.2273 54.3172C78.4928 54.1638 78.4928 53.916 78.2273 53.7655Z" fill="#5793CE"/>
<path d="M78.4219 54.0605L78.4248 31.0917L61.3059 21.5484L58.9134 21.3921L56.5977 22.8907L55.1758 24.1268L71.8552 50.5766L77.3009 53.7862L78.4219 54.0605Z" fill="#5793CE"/>
<path d="M72.0909 56.9634L77.2092 54.0075V31.8086L71.9346 34.263L72.0909 56.9634Z" fill="#79B1E0"/>
<path d="M54.3711 24.3067V47.2371L72.3426 57.515L72.5815 57.4206V34.4547L54.3711 24.3067Z" fill="#D4ECFF"/>
<path d="M71.9346 34.0949V57.8041C72.0968 57.8012 72.2591 57.7628 72.383 57.692C72.5128 57.6183 72.5777 57.518 72.5806 57.4206V34.4548L71.9346 34.0949Z" fill="#5793CE"/>
<path d="M67.1708 45.5999L58.6807 40.697V32.1891L67.1708 37.0891V45.5999Z" fill="#B283D5"/>
<path d="M47.5826 50.6946C46.6209 51.2492 46.6209 52.1519 47.5826 52.7065L63.9168 62.1377C64.1823 62.2911 64.6101 62.2911 64.8726 62.1377C65.1381 61.9843 65.1381 61.7365 64.8726 61.586L48.5384 52.1548C48.1048 51.9041 48.1048 51.497 48.5384 51.2462L50.1226 50.3317C49.9456 50.0662 49.7863 49.7919 49.6299 49.5116L47.5826 50.6946Z" fill="#FF2C9C"/>
<path d="M70.7166 58.2112L54.3824 48.78C53.4207 48.2254 51.8571 48.2254 50.8954 48.78L49.6299 49.5116C49.7862 49.7919 49.9455 50.0692 50.1225 50.3317L51.8542 49.3317C52.2878 49.0809 52.9929 49.0809 53.4266 49.3317L69.7608 58.7629C70.0263 58.9163 70.454 58.9163 70.7166 58.7629C70.9821 58.6095 70.9821 58.3617 70.7166 58.2112Z" fill="#D3008D"/>
<path d="M70.9141 58.5092V35.5374L53.7981 25.9971L51.4027 25.8378L49.0869 27.3364L47.668 28.5754L64.3444 55.0223L69.7901 58.2319L70.9141 58.5092Z" fill="#D3008D"/>
<path d="M64.5831 61.409L69.6985 58.4561V36.2572L64.4238 38.7087L64.5831 61.409Z" fill="#E573B5"/>
<path d="M46.8633 28.7523V51.6828L64.8318 61.9636L65.0708 61.8662V38.9004L46.8633 28.7523Z" fill="#FF2C9C"/>
<path d="M56.9693 28.9412L53.3969 26.888C52.9603 26.6874 52.3231 26.6992 51.9189 26.9322L48.6031 28.8468C48.3464 28.9943 48.2432 29.1978 48.2904 29.3925L57.3145 34.7852L64.5627 39.2338L69.6957 36.2543L56.9664 28.9382L56.9693 28.9412Z" fill="#B283D5"/>
<path d="M64.4238 38.5405V62.2498C64.5861 62.2469 64.7483 62.2085 64.8722 62.1377C65.002 62.0639 65.0669 61.9636 65.0699 61.8663V38.9004L64.4238 38.5405Z" fill="#D3008D"/>
<path d="M65.0699 39.1983V38.9063L64.9814 39.0302L65.0699 39.1983Z" fill="#B283D5"/>
<path d="M63.9168 39.1718L47.5826 29.7406C46.6209 29.186 46.6209 28.2833 47.5826 27.7287L50.8984 25.8142C51.8601 25.2596 53.4236 25.2596 54.3853 25.8142L70.7196 35.2454C70.9851 35.3988 70.9851 35.6466 70.7196 35.797C70.4541 35.9475 70.0263 35.9504 69.7638 35.797L53.4295 26.3658C52.9959 26.1151 52.2908 26.1151 51.8572 26.3658L48.5414 28.2804C48.1077 28.5311 48.1077 28.9382 48.5414 29.189L64.8756 38.6202C65.1411 38.7736 65.1411 39.0214 64.8756 39.1718C64.6101 39.3223 64.1823 39.3252 63.9198 39.1718H63.9168Z" fill="#FF2C9C"/>
<path d="M59.6601 50.0456L51.1699 45.1426V36.6348L59.6601 41.5348V50.0456Z" fill="#B283D5"/>
<path d="M64.8725 39.1718C64.607 39.3252 64.1792 39.3252 63.9167 39.1718L47.5824 29.7406C47.1694 29.5017 46.9334 29.1978 46.8774 28.8851C46.8007 29.2981 47.0367 29.7259 47.5824 30.0415L63.9167 39.4727C64.1822 39.6261 64.6099 39.6261 64.8725 39.4727C65.0731 39.3577 65.1203 39.1866 65.017 39.045C64.9846 39.0892 64.9374 39.1335 64.8725 39.1689V39.1718Z" fill="#B283D5"/>
<path d="M39.8658 58.1404C38.9041 58.695 38.9041 59.5977 39.8658 60.1523L56.2 69.5835C56.4655 69.7369 56.8933 69.7369 57.1558 69.5835C57.4184 69.4301 57.4213 69.1823 57.1558 69.0318L40.8216 59.6007C40.388 59.3499 40.388 58.9428 40.8216 58.6921L42.4058 57.7775C42.2288 57.512 42.0695 57.2377 41.9131 56.9574L39.8658 58.1404Z" fill="#D4ECFF"/>
<path d="M62.9998 65.66L46.6656 56.2288C45.7039 55.6742 44.1403 55.6742 43.1786 56.2288L41.9131 56.9604C42.0694 57.2406 42.2287 57.5179 42.4057 57.7805L44.1374 56.7804C44.571 56.5297 45.2761 56.5297 45.7098 56.7804L62.044 66.2116C62.3095 66.365 62.7372 66.365 62.9998 66.2116C63.2653 66.0582 63.2653 65.8104 62.9998 65.66Z" fill="#5793CE"/>
<path d="M63.1973 65.955V42.9862L46.0813 33.4429L43.6859 33.2836L41.3701 34.7851L39.9512 36.0212L56.6306 62.4681L62.0733 65.6777L63.1973 65.955Z" fill="#5793CE"/>
<path d="M56.8663 68.8548L61.9817 65.9018V43.7029L56.707 46.1544L56.8663 68.8548Z" fill="#79B1E0"/>
<path d="M39.1465 36.1982V59.1316L57.115 69.4094L57.354 69.3121V46.3462L39.1465 36.1982Z" fill="#D4ECFF"/>
<path d="M49.2525 36.387L45.6801 34.3338C45.2435 34.1332 44.6063 34.145 44.2021 34.378L40.8863 36.2926C40.6296 36.4401 40.5264 36.6436 40.5736 36.8383L49.5977 42.231L56.8459 46.6796L61.9789 43.7001L49.2496 36.384L49.2525 36.387Z" fill="#B283D5"/>
<path d="M56.707 45.9864V69.6957C56.8693 69.6927 57.0315 69.6544 57.1554 69.5835C57.2852 69.5098 57.3501 69.4095 57.3531 69.3121V46.3463L56.707 45.9864Z" fill="#5793CE"/>
<path d="M63.1971 43.2723V42.9861H63.1057L63.0791 43.1808L63.1971 43.2723Z" fill="#B283D5"/>
<path d="M57.3531 46.6442V46.3521L57.2646 46.476L57.3531 46.6442Z" fill="#B283D5"/>
<path d="M56.2 46.6206L39.8658 37.1894C38.9041 36.6348 38.9041 35.7321 39.8658 35.1775L43.1816 33.2629C44.1433 32.7083 45.7068 32.7083 46.6685 33.2629L63.0028 42.6941C63.2683 42.8475 63.2683 43.0953 63.0028 43.2458C62.7373 43.3962 62.3095 43.3992 62.047 43.2458L45.7127 33.8146C45.2791 33.5638 44.574 33.5638 44.1404 33.8146L40.8246 35.7291C40.3909 35.9799 40.3909 36.387 40.8246 36.6377L57.1588 46.0689C57.4243 46.2223 57.4243 46.4701 57.1588 46.6206C56.8933 46.771 56.4655 46.774 56.203 46.6206H56.2Z" fill="#D4ECFF"/>
<path d="M51.9432 57.4914L43.4561 52.5914V44.0806L51.9432 48.9836V57.4914Z" fill="#B283D5"/>
<path d="M62.9999 43.2458C62.7344 43.3992 62.3067 43.3992 62.0441 43.2458L45.7099 33.8146C45.2762 33.5638 44.5712 33.5638 44.1375 33.8146L40.8217 35.7291C40.5385 35.8943 40.4412 36.1244 40.5297 36.3339C40.5769 36.2218 40.6713 36.1185 40.8217 36.03L44.1375 34.1155C44.5712 33.8647 45.2762 33.8647 45.7099 34.1155L62.0441 43.5467C62.3096 43.7001 62.7374 43.7001 62.9999 43.5467C63.2005 43.4316 63.2477 43.2605 63.1445 43.1189C63.112 43.1632 63.0648 43.2074 62.9999 43.2428V43.2458Z" fill="#B283D5"/>
<path d="M57.1557 46.6206C56.8902 46.774 56.4624 46.774 56.1999 46.6206L39.8657 37.1894C39.4527 36.9504 39.2167 36.6466 39.1606 36.3339C39.0839 36.7469 39.3199 37.1746 39.8657 37.4903L56.1999 46.9215C56.4654 47.0749 56.8931 47.0749 57.1557 46.9215C57.3563 46.8064 57.4035 46.6353 57.3002 46.4937C57.2678 46.538 57.2206 46.5822 57.1557 46.6176V46.6206Z" fill="#B283D5"/>
</g>
</g>
<mask id="mask2_1203_9307" style="mask-type:luminance" maskUnits="userSpaceOnUse" x="37" y="10" width="47" height="42">
<path d="M37.4199 41.1985L56.7071 51.8805L83.449 36.4903L83.8649 13.3504L66.0646 10.4564L38.2017 29.8882L37.4199 41.1985Z" fill="white"/>
</mask>
<g mask="url(#mask2_1203_9307)">
<path d="M70.0471 36.8621L68.6842 41.3343L65.1943 43.7386L67.8405 44.8183L67.0469 49.258L70.0471 45.3935L73.0473 45.7918L72.2537 42.2695L74.9028 38.1306L71.413 39.7619L70.0471 36.8621Z" fill="#E8A200"/>
<path d="M76.5315 39.0658L74.9031 38.1306L72.3868 39.3047C72.3868 39.3047 72.3956 40.9951 72.3868 41.0364C72.3779 41.0777 73.4252 41.1278 73.493 41.1278C73.5609 41.1278 76.5315 39.0658 76.5315 39.0658Z" fill="#D3008D"/>
<path d="M67.0469 49.258L68.6753 50.1932L69.4688 45.7534C69.4688 45.7534 68.6782 44.9215 68.6841 44.9215C68.69 44.9215 67.7962 45.072 67.7962 45.072L67.0469 49.258Z" fill="#D3008D"/>
<path d="M71.675 37.7973L70.3121 42.2695L66.8223 44.6737L69.4684 45.7534L68.6749 50.1932L71.675 46.3287L74.6782 46.7269L73.8817 43.2046L76.5308 39.0658L73.0409 40.6971L71.675 37.7973Z" fill="#FF2C9C"/>
<path d="M68.9935 49.7831L69.7398 45.6029L67.3238 44.6176L70.5157 42.4198L71.7222 38.4639L72.9229 41.0127L76.2859 39.4433L76.5278 39.0627L73.0379 40.6911L71.675 37.7913L70.3121 42.2635L66.8223 44.6648L69.4714 45.7445L68.6778 50.1843L68.9964 49.7742L68.9935 49.7831Z" fill="#B283D5"/>
<path d="M71.6759 37.7972L70.0475 36.8621L68.6846 41.3343L70.313 42.2695L71.6759 37.7972Z" fill="#D3008D"/>
<path d="M65.1943 43.7386L66.8227 44.6737L70.3126 42.2694L68.6842 41.3343L65.1943 43.7386Z" fill="#D3008D"/>
<path d="M70.2331 42.3815L70.4809 42.2399L68.7198 41.2163L68.6844 41.3343L68.5693 41.4139L70.2331 42.3815Z" fill="#B283D5"/>
<path d="M58.9202 43.2312L57.5572 47.7034L54.0674 50.1077L56.7135 51.1874L55.92 55.6272L58.9202 51.7626L61.9203 52.1609L61.1268 48.6386L63.7759 44.4997L60.286 46.1311L58.9202 43.2312Z" fill="#E8A200"/>
<path d="M65.4046 45.4349L63.7762 44.4998L61.2598 45.6739C61.2598 45.6739 61.2687 47.3642 61.2598 47.4055C61.251 47.4468 62.2982 47.497 62.3661 47.497C62.4339 47.497 65.4046 45.4349 65.4046 45.4349Z" fill="#D3008D"/>
<path d="M55.9199 55.6272L57.5483 56.5623L58.3419 52.1225C58.3419 52.1225 57.5513 51.2906 57.5572 51.2906C57.5631 51.2906 56.6692 51.4411 56.6692 51.4411L55.9199 55.6272Z" fill="#D3008D"/>
<path d="M60.551 44.1663L59.1852 48.6385L55.6953 51.0427L58.3444 52.1224L57.5479 56.5622L60.551 52.6977L63.5512 53.096L62.7576 49.5736L65.4038 45.4348L61.9139 47.0661L60.551 44.1663Z" fill="#FF2C9C"/>
<path d="M57.8665 56.1522L58.6129 51.972L56.1968 50.9867L59.3887 48.789L60.5953 44.833L61.7959 47.3818L65.159 45.8124L65.4009 45.4319L61.911 47.0603L60.5481 44.1604L59.1852 48.6326L55.6953 51.0339L58.3444 52.1136L57.5509 56.5534L57.8695 56.1434L57.8665 56.1522Z" fill="#B283D5"/>
<path d="M60.5519 44.1664L58.9205 43.2312L57.5576 47.7034L59.186 48.6386L60.5519 44.1664Z" fill="#D3008D"/>
<path d="M54.0674 50.1077L55.6958 51.0428L59.1857 48.6386L57.5572 47.7034L54.0674 50.1077Z" fill="#D3008D"/>
<path d="M59.1062 48.7507L59.354 48.6091L57.5928 47.5854L57.5574 47.7034L57.4424 47.7831L59.1062 48.7507Z" fill="#B283D5"/>
<path d="M47.7922 49.6002L46.4293 54.0725L42.9395 56.4767L45.5856 57.5564L44.7921 61.9962L47.7922 58.1317L50.7953 58.5299L50.0018 55.0076L52.6479 50.8717L49.1581 52.5001L47.7922 49.6002Z" fill="#E8A200"/>
<path d="M54.2767 51.8069L52.6483 50.8717L50.1319 52.0458C50.1319 52.0458 50.1407 53.7362 50.1319 53.7775C50.123 53.8188 51.1703 53.8689 51.2381 53.8689C51.306 53.8689 54.2767 51.8069 54.2767 51.8069Z" fill="#D3008D"/>
<path d="M49.4231 50.5353L48.0572 55.0075L44.5674 57.4118L47.2165 58.4915L46.4229 62.9313L49.4231 59.0667L52.4233 59.465L51.6297 55.9427L54.2759 51.8067L50.786 53.4352L49.4231 50.5353Z" fill="#FF2C9C"/>
<path d="M46.7425 62.5212L47.4889 58.3411L45.0728 57.3558L48.2647 55.158L49.4713 51.202L50.6719 53.7508L54.0349 52.1814L54.2768 51.8009L50.787 53.4293L49.4241 50.5294L48.0612 55.0017L44.5713 57.403L47.2204 58.4827L46.4268 62.9224L46.7454 62.5124L46.7425 62.5212Z" fill="#B283D5"/>
<path d="M49.4239 50.5354L47.7926 49.6002L46.4297 54.0725L48.0581 55.0076L49.4239 50.5354Z" fill="#D3008D"/>
<path d="M62.3059 26.301L60.943 30.7732L57.4502 33.1746L60.0993 34.2543L59.3058 38.694L62.3059 34.8325L65.3061 35.2307L64.5125 31.7084L67.1616 27.5695L63.6688 29.1979L62.3059 26.301Z" fill="#E8A200"/>
<path d="M68.7903 28.5047L67.1619 27.5696L64.6456 28.7437C64.6456 28.7437 64.6544 30.434 64.6456 30.4753C64.6367 30.5166 65.684 30.5668 65.7518 30.5668C65.8197 30.5668 68.7903 28.5047 68.7903 28.5047Z" fill="#D3008D"/>
<path d="M59.3057 38.694L60.9341 39.6292L61.7276 35.1894C61.7276 35.1894 60.937 34.3575 60.9429 34.3575C60.9488 34.3575 60.055 34.508 60.055 34.508L59.3057 38.694Z" fill="#D3008D"/>
<path d="M63.9338 27.2362L62.5709 31.7084L59.0781 34.1097L61.7272 35.1894L60.9337 39.6292L63.9338 35.7676L66.934 36.1659L66.1405 32.6436L68.7896 28.5047L65.2968 30.1331L63.9338 27.2362Z" fill="#FF2C9C"/>
<path d="M61.2532 39.2191L61.9996 35.0389L59.5835 34.0536L62.7754 31.8559L63.982 27.8999L65.1827 30.4487L68.5457 28.8793L68.7876 28.4988L65.2977 30.1272L63.9348 27.2273L62.5719 31.6995L59.082 34.1008L61.7311 35.1805L60.9376 39.6203L61.2562 39.2102L61.2532 39.2191Z" fill="#B283D5"/>
<path d="M63.9347 27.2362L62.3063 26.301L60.9434 30.7732L62.5718 31.7084L63.9347 27.2362Z" fill="#D3008D"/>
<path d="M57.4502 33.1746L59.0786 34.1097L62.5714 31.7084L60.943 30.7732L57.4502 33.1746Z" fill="#D3008D"/>
<path d="M62.489 31.8205L62.7368 31.676L60.9786 30.6523L60.9432 30.7732L60.8252 30.8529L62.489 31.8205Z" fill="#B283D5"/>
<path d="M51.179 32.6701L49.8161 37.1423L46.3232 39.5436L48.9724 40.6233L48.1788 45.0631L51.179 41.2015L54.1791 41.5998L53.3856 38.0775L56.0347 33.9386L52.5419 35.567L51.179 32.6701Z" fill="#E8A200"/>
<path d="M57.6634 34.8738L56.035 33.9387L53.5186 35.1128C53.5186 35.1128 53.5275 36.8031 53.5186 36.8444C53.5098 36.8857 54.557 36.9359 54.6249 36.9359C54.6927 36.9359 57.6634 34.8738 57.6634 34.8738Z" fill="#D3008D"/>
<path d="M48.1787 45.0631L49.8071 45.9983L50.6007 41.5585C50.6007 41.5585 49.8101 40.7266 49.816 40.7266C49.8219 40.7266 48.928 40.877 48.928 40.877L48.1787 45.0631Z" fill="#D3008D"/>
<path d="M52.8078 33.6053L51.4449 38.0775L47.9551 40.4788L50.6012 41.5585L49.8077 45.9983L52.8078 42.1367L55.808 42.535L55.0145 39.0127L57.6636 34.8738L54.1737 36.5022L52.8078 33.6053Z" fill="#FF2C9C"/>
<path d="M50.1263 45.5882L50.8726 41.408L48.4566 40.4227L51.6485 38.2249L52.8551 34.269L54.0557 36.8178L57.4187 35.2484L57.6606 34.8678L54.1708 36.4962L52.8078 33.5964L51.4449 38.0686L47.9551 40.4699L50.6042 41.5496L49.8106 45.9894L50.1292 45.5793L50.1263 45.5882Z" fill="#B283D5"/>
<path d="M52.8077 33.6053L51.1793 32.6701L49.8164 37.1423L51.4448 38.0775L52.8077 33.6053Z" fill="#D3008D"/>
<path d="M46.3232 39.5436L47.9546 40.4788L51.4445 38.0775L49.8161 37.1423L46.3232 39.5436Z" fill="#D3008D"/>
<path d="M51.362 38.1896L51.6098 38.048L49.8516 37.0214L49.8162 37.1423L49.6982 37.222L51.362 38.1896Z" fill="#B283D5"/>
<path d="M55.0904 41.3283C54.1287 41.8829 54.1287 42.7856 55.0904 43.3403L71.4246 52.7714C71.6901 52.9248 72.1179 52.9248 72.3804 52.7714C72.646 52.618 72.646 52.3702 72.3804 52.2198L56.0462 42.7886C55.6126 42.5378 55.6126 42.1307 56.0462 41.88L57.6304 40.9655C57.4534 40.7 57.2941 40.4256 57.1377 40.1454L55.0904 41.3283Z" fill="#D4ECFF"/>
<path d="M78.2273 48.845L61.8931 39.4138C60.9314 38.8592 59.3679 38.8592 58.4062 39.4138L57.1406 40.1454C57.297 40.4256 57.4563 40.7029 57.6333 40.9655L59.3649 39.9654C59.7986 39.7147 60.5036 39.7147 60.9373 39.9654L77.2715 49.3966C77.537 49.55 77.9648 49.55 78.2273 49.3966C78.4928 49.2432 78.4928 48.9954 78.2273 48.845Z" fill="#5793CE"/>
<path d="M78.4219 49.14L78.4248 26.1712L61.3059 16.6279L58.9134 16.4715L56.5977 17.9701L55.1758 19.2062L71.8552 45.656L77.3009 48.8656L78.4219 49.14Z" fill="#5793CE"/>
<path d="M72.0909 52.0428L77.2092 49.0869V26.8881L71.9346 29.3395L72.0909 52.0428Z" fill="#79B1E0"/>
<path d="M54.3711 19.3861V42.3166L72.3426 52.5944L72.5815 52.5V29.5342L54.3711 19.3861Z" fill="url(#paint4_linear_1203_9307)"/>
<path d="M64.4771 19.575L60.9047 17.5217C60.4681 17.3211 59.8309 17.3329 59.4267 17.566L56.1109 19.4806C55.8543 19.6281 55.751 19.8316 55.7982 20.0263L64.8223 25.4189L72.0705 29.8675L77.2035 26.888L64.4742 19.575H64.4771Z" fill="#FDFAFF"/>
<path d="M71.9346 29.1743V52.8836C72.0968 52.8806 72.2591 52.8423 72.383 52.7715C72.5128 52.6977 72.5777 52.5974 72.5806 52.5001V29.5342L71.9346 29.1743Z" fill="#5793CE"/>
<path d="M78.4247 26.4573V26.1711H78.3332L78.3037 26.3658L78.4247 26.4573Z" fill="#B283D5"/>
<path d="M72.5807 29.8321V29.5371L72.4922 29.661L72.5807 29.8321Z" fill="#B283D5"/>
<path d="M71.4276 29.8056L55.0933 20.3744C54.1316 19.8198 54.1316 18.9171 55.0933 18.3625L58.4092 16.4479C59.3709 15.8933 60.9344 15.8933 61.8961 16.4479L78.2303 25.8791C78.4958 26.0325 78.4958 26.2803 78.2303 26.4308C77.9648 26.5842 77.5371 26.5842 77.2745 26.4308L60.9403 16.9996C60.5066 16.7488 59.8016 16.7488 59.3679 16.9996L56.0521 18.9141C55.6185 19.1649 55.6185 19.572 56.0521 19.8228L72.3863 29.2539C72.6518 29.4073 72.6518 29.6551 72.3863 29.8056C72.1208 29.959 71.6931 29.959 71.4305 29.8056H71.4276Z" fill="#D4ECFF"/>
<path d="M67.1708 40.6764L58.6807 35.7764V27.2686L67.1708 32.1686V40.6764Z" fill="#FDFAFF"/>
<path d="M78.2274 26.4308C77.9619 26.5842 77.5342 26.5842 77.2716 26.4308L60.9374 16.9996C60.5038 16.7488 59.7987 16.7488 59.3651 16.9996L56.0492 18.9141C55.766 19.0793 55.6687 19.3094 55.7572 19.5189C55.8044 19.4068 55.8988 19.3035 56.0492 19.215L59.3651 17.3005C59.7987 17.0497 60.5038 17.0497 60.9374 17.3005L77.2716 26.7317C77.5371 26.8851 77.9649 26.8851 78.2274 26.7317C78.428 26.6166 78.4752 26.4455 78.372 26.3039C78.3395 26.3482 78.2923 26.3924 78.2274 26.4278V26.4308Z" fill="#B283D5"/>
<path d="M72.3832 29.8056C72.1177 29.959 71.69 29.959 71.4274 29.8056L55.0932 20.3744C54.6802 20.1354 54.4442 19.8316 54.3881 19.5189C54.3114 19.9319 54.5474 20.3596 55.0932 20.6753L71.4274 30.1065C71.6929 30.2599 72.1207 30.2599 72.3832 30.1065C72.5838 29.9914 72.631 29.8203 72.5278 29.6787C72.4953 29.723 72.4481 29.7672 72.3832 29.8026V29.8056Z" fill="#B283D5"/>
<path d="M47.5826 50.6947C46.6209 51.2493 46.6209 52.152 47.5826 52.7066L63.9168 62.1378C64.1823 62.2912 64.6101 62.2912 64.8726 62.1378C65.1381 61.9844 65.1381 61.7366 64.8726 61.5861L48.5384 52.1549C48.1048 51.9042 48.1048 51.4971 48.5384 51.2463L50.1226 50.3318C49.9456 50.0663 49.7863 49.792 49.6299 49.5117L47.5826 50.6947Z" fill="#FF2C9C"/>
<path d="M70.7166 58.2113L54.3824 48.7801C53.4207 48.2255 51.8571 48.2255 50.8954 48.7801L49.6299 49.5117C49.7862 49.792 49.9455 50.0693 50.1225 50.3318L51.8542 49.3318C52.2878 49.081 52.9929 49.081 53.4266 49.3318L69.7608 58.763C70.0263 58.9164 70.454 58.9164 70.7166 58.763C70.9821 58.6096 70.9821 58.3618 70.7166 58.2113Z" fill="#D3008D"/>
<path d="M70.9141 58.5093V35.5375L53.7981 25.9972L51.4027 25.8379L49.0869 27.3365L47.668 28.5755L64.3444 55.0224L69.7901 58.232L70.9141 58.5093Z" fill="#D3008D"/>
<path d="M64.5831 61.4091L69.6985 58.4562V36.2573L64.4238 38.7088L64.5831 61.4091Z" fill="#E573B5"/>
<path d="M46.8633 28.7524V51.6829L64.8318 61.9637L65.0708 61.8663V38.9005L46.8633 28.7524Z" fill="url(#paint5_linear_1203_9307)"/>
<path d="M56.9693 28.9413L53.3969 26.8881C52.9603 26.6875 52.3231 26.6993 51.9189 26.9323L48.6031 28.8469C48.3464 28.9944 48.2432 29.1979 48.2904 29.3926L57.3145 34.7853L64.5627 39.2339L69.6957 36.2544L56.9664 28.9383L56.9693 28.9413Z" fill="#FDFAFF"/>
<path d="M64.4238 38.5406V62.2499C64.5861 62.247 64.7483 62.2086 64.8722 62.1378C65.002 62.0641 65.0669 61.9638 65.0699 61.8664V38.9005L64.4238 38.5406Z" fill="#D3008D"/>
<path d="M70.9139 35.8236V35.5375H70.8225L70.7959 35.7322L70.9139 35.8236Z" fill="#B283D5"/>
<path d="M65.0699 39.1984V38.9064L64.9814 39.0303L65.0699 39.1984Z" fill="#B283D5"/>
<path d="M63.9168 39.1719L47.5826 29.7407C46.6209 29.1861 46.6209 28.2834 47.5826 27.7288L50.8984 25.8143C51.8601 25.2597 53.4236 25.2597 54.3853 25.8143L70.7196 35.2455C70.9851 35.3989 70.9851 35.6467 70.7196 35.7971C70.4541 35.9476 70.0263 35.9505 69.7638 35.7971L53.4295 26.3659C52.9959 26.1152 52.2908 26.1152 51.8572 26.3659L48.5414 28.2805C48.1077 28.5312 48.1077 28.9383 48.5414 29.1891L64.8756 38.6203C65.1411 38.7737 65.1411 39.0215 64.8756 39.1719C64.6101 39.3224 64.1823 39.3253 63.9198 39.1719H63.9168Z" fill="#FF2C9C"/>
<path d="M59.6601 50.0457L51.1699 45.1428V36.6349L59.6601 41.5349V50.0457Z" fill="#B283D5"/>
<path d="M70.7167 35.8001C70.4512 35.9535 70.0235 35.9535 69.7609 35.8001L53.4267 26.3689C52.993 26.1181 52.288 26.1181 51.8543 26.3689L48.5385 28.2834C48.2553 28.4486 48.158 28.6787 48.2465 28.8882C48.2937 28.7761 48.388 28.6728 48.5385 28.5843L51.8543 26.6698C52.288 26.419 52.993 26.419 53.4267 26.6698L69.7609 36.101C70.0264 36.2544 70.4542 36.2544 70.7167 36.101C70.9173 35.9859 70.9645 35.8148 70.8613 35.6732C70.8288 35.7175 70.7816 35.7617 70.7167 35.7971V35.8001Z" fill="#B283D5"/>
<path d="M64.8725 39.1719C64.607 39.3253 64.1792 39.3253 63.9167 39.1719L47.5824 29.7407C47.1694 29.5018 46.9334 29.1979 46.8774 28.8852C46.8007 29.2982 47.0367 29.726 47.5824 30.0416L63.9167 39.4728C64.1822 39.6262 64.6099 39.6262 64.8725 39.4728C65.0731 39.3578 65.1203 39.1867 65.017 39.0451C64.9846 39.0893 64.9374 39.1336 64.8725 39.169V39.1719Z" fill="#B283D5"/>
<path d="M63.1973 65.5775V42.6087L46.0813 33.0683L43.6859 32.909L41.3701 34.4076L39.9512 35.6437L56.6306 62.0935L62.0733 65.3031L63.1973 65.5775Z" fill="#5793CE"/>
<path d="M56.8663 68.4802L61.9817 65.5242V43.3283L56.707 45.7798L56.8663 68.4802Z" fill="#79B1E0"/>
<path d="M39.1465 35.8236V58.754L57.115 69.0319L57.354 68.9375V45.9716L39.1465 35.8236Z" fill="url(#paint6_linear_1203_9307)"/>
<path d="M49.2525 36.0124L45.6801 33.9592C45.2435 33.7586 44.6063 33.7704 44.2021 34.0035L40.8863 35.918C40.6296 36.0655 40.5264 36.2691 40.5736 36.4638L49.5977 41.8564L56.8459 46.305L61.9789 43.3255L49.2496 36.0095L49.2525 36.0124Z" fill="#FDFAFF"/>
<path d="M56.707 45.6118V69.321C56.8693 69.3181 57.0315 69.2797 57.1554 69.2089C57.2852 69.1352 57.3501 69.0349 57.3531 68.9375V45.9717L56.707 45.6118Z" fill="#5793CE"/>
<path d="M63.1971 42.8948V42.6086H63.1057L63.0791 42.8033L63.1971 42.8948Z" fill="#B283D5"/>
<path d="M57.3531 46.2696V45.9746L57.2646 46.1014L57.3531 46.2696Z" fill="#B283D5"/>
<path d="M56.2 46.2431L39.8658 36.8119C38.9041 36.2573 38.9041 35.3546 39.8658 34.8L43.1816 32.8854C44.1433 32.3308 45.7068 32.3308 46.6685 32.8854L63.0028 42.3166C63.2683 42.47 63.2683 42.7178 63.0028 42.8683C62.7373 43.0187 62.3095 43.0217 62.047 42.8683L45.7127 33.4371C45.2791 33.1863 44.574 33.1863 44.1404 33.4371L40.8246 35.3516C40.3909 35.6024 40.3909 36.0095 40.8246 36.2602L57.1588 45.6914C57.4243 45.8448 57.4243 46.0926 57.1588 46.2431C56.8933 46.3965 56.4655 46.3965 56.203 46.2431H56.2Z" fill="#D4ECFF"/>
<path d="M51.9432 57.1168L43.4561 52.2139V43.7061L51.9432 48.606V57.1168Z" fill="#FDFAFF"/>
<path d="M62.9999 42.8712C62.7344 43.0246 62.3067 43.0246 62.0441 42.8712L45.7099 33.44C45.2762 33.1893 44.5712 33.1893 44.1375 33.44L40.8217 35.3546C40.5385 35.5198 40.4412 35.7499 40.5297 35.9593C40.5769 35.8472 40.6713 35.744 40.8217 35.6555L44.1375 33.7409C44.5712 33.4902 45.2762 33.4902 45.7099 33.7409L62.0441 43.1721C62.3096 43.3255 62.7374 43.3255 62.9999 43.1721C63.2005 43.0571 63.2477 42.886 63.1445 42.7444C63.112 42.7886 63.0648 42.8329 62.9999 42.8683V42.8712Z" fill="#B283D5"/>
<path d="M57.1557 46.2431C56.8902 46.3965 56.4624 46.3965 56.1999 46.2431L39.8657 36.8119C39.4527 36.5729 39.2167 36.2691 39.1606 35.9564C39.0839 36.3694 39.3199 36.7971 39.8657 37.1128L56.1999 46.544C56.4654 46.6974 56.8931 46.6974 57.1557 46.544C57.3563 46.4289 57.4035 46.2578 57.3002 46.1162C57.2678 46.1605 57.2206 46.2047 57.1557 46.2401V46.2431Z" fill="#B283D5"/>
</g>
<path d="M92.7624 20.044C92.6975 20.044 92.6326 20.0263 92.5736 19.9938C92.4585 19.926 92.3848 19.8021 92.3848 19.6693V14.852C92.3848 14.7163 92.4556 14.5924 92.5736 14.5275L96.7449 12.1173C96.8599 12.0494 97.0045 12.0494 97.1225 12.1173C97.2375 12.1851 97.3113 12.309 97.3113 12.4418V17.2592C97.3113 17.3949 97.2405 17.5188 97.1225 17.5837L92.9512 19.9938C92.8922 20.0263 92.8273 20.044 92.7624 20.044ZM93.137 15.0673V19.0174L96.559 17.0409V13.0908L93.137 15.0673Z" fill="#B283D5"/>
</g>
<defs>
<linearGradient id="paint0_linear_1203_9307" x1="42.7334" y1="45.653" x2="105.061" y2="45.653" gradientUnits="userSpaceOnUse">
<stop stop-color="#EFD8F5"/>
<stop offset="0.12" stop-color="#F2CEFC"/>
<stop offset="0.33" stop-color="#F2CEFC"/>
<stop offset="0.54" stop-color="#EFD8F5"/>
<stop offset="0.76" stop-color="#F2CEFC"/>
<stop offset="1" stop-color="#C886DA"/>
</linearGradient>
<radialGradient id="paint1_radial_1203_9307" cx="0" cy="0" r="1" gradientUnits="userSpaceOnUse" gradientTransform="translate(98.9746 33.4872) scale(60.7113)">
<stop stop-color="#6A289C"/>
<stop offset="0.42" stop-color="#693392"/>
<stop offset="0.82" stop-color="#693392"/>
<stop offset="1" stop-color="#693392"/>
</radialGradient>
<linearGradient id="paint2_linear_1203_9307" x1="37.5303" y1="3.42255" x2="45.2652" y2="13.5293" gradientUnits="userSpaceOnUse">
<stop stop-color="#962CFF"/>
<stop offset="0.31" stop-color="#7828FB"/>
<stop offset="0.6" stop-color="#6D1DF0"/>
<stop offset="0.88" stop-color="#800ADD"/>
<stop offset="1" stop-color="#8300D3"/>
</linearGradient>
<linearGradient id="paint3_linear_1203_9307" x1="21.2252" y1="6.89468" x2="41.2764" y2="16.8539" gradientUnits="userSpaceOnUse">
<stop stop-color="#D4ECFF"/>
<stop offset="0.24" stop-color="#D0E9FD"/>
<stop offset="0.46" stop-color="#C5E2F9"/>
<stop offset="0.67" stop-color="#B2D5F1"/>
<stop offset="0.88" stop-color="#98C4E7"/>
<stop offset="1" stop-color="#86B8E0"/>
</linearGradient>
<linearGradient id="paint4_linear_1203_9307" x1="54.3711" y1="35.9888" x2="72.5815" y2="35.9888" gradientUnits="userSpaceOnUse">
<stop stop-color="#86B8E0"/>
<stop offset="0.12" stop-color="#98C4E7"/>
<stop offset="0.33" stop-color="#B2D5F1"/>
<stop offset="0.54" stop-color="#C5E2F9"/>
<stop offset="0.76" stop-color="#D0E9FD"/>
<stop offset="1" stop-color="#D4ECFF"/>
</linearGradient>
<linearGradient id="paint5_linear_1203_9307" x1="46.8633" y1="45.3581" x2="65.0708" y2="45.3581" gradientUnits="userSpaceOnUse">
<stop stop-color="#D3008D"/>
<stop offset="0.12" stop-color="#DD0A90"/>
<stop offset="0.4" stop-color="#F01D96"/>
<stop offset="0.69" stop-color="#FB289A"/>
<stop offset="1" stop-color="#FF2C9C"/>
</linearGradient>
<linearGradient id="paint6_linear_1203_9307" x1="39.1465" y1="52.4292" x2="57.354" y2="52.4292" gradientUnits="userSpaceOnUse">
<stop stop-color="#86B8E0"/>
<stop offset="0.12" stop-color="#98C4E7"/>
<stop offset="0.33" stop-color="#B2D5F1"/>
<stop offset="0.54" stop-color="#C5E2F9"/>
<stop offset="0.76" stop-color="#D0E9FD"/>
<stop offset="1" stop-color="#D4ECFF"/>
</linearGradient>
<clipPath id="clip0_1203_9307">
<rect width="108" height="82" fill="white" transform="translate(0.0996094)"/>
</clipPath>
</defs>
</svg>
