<svg width="20" height="21" viewBox="0 0 20 21" fill="none" xmlns="http://www.w3.org/2000/svg">
<mask id="mask0_1159_2995" style="mask-type:alpha" maskUnits="userSpaceOnUse" x="0" y="0" width="20" height="21">
<rect y="0.5" width="20" height="20" fill="#D9D9D9"/>
</mask>
<g mask="url(#mask0_1159_2995)">
<path d="M10.4795 18.3333C10.1462 18.6666 9.75033 18.8333 9.29199 18.8333C8.83366 18.8333 8.43783 18.6666 8.10449 18.3333L2.14616 12.375C1.82671 12.0555 1.66699 11.6632 1.66699 11.1979C1.66699 10.7326 1.82671 10.3402 2.14616 10.0208L9.47949 2.66663C9.63227 2.51385 9.81283 2.39232 10.0212 2.30204C10.2295 2.21176 10.4517 2.16663 10.6878 2.16663H16.6462C17.1045 2.16663 17.4969 2.32982 17.8232 2.65621C18.1496 2.9826 18.3128 3.37496 18.3128 3.83329V9.79163C18.3128 10.0277 18.2677 10.25 18.1774 10.4583C18.0871 10.6666 17.9656 10.8472 17.8128 11L10.4795 18.3333ZM14.5628 7.16663C14.91 7.16663 15.2052 7.0451 15.4482 6.80204C15.6913 6.55899 15.8128 6.26385 15.8128 5.91663C15.8128 5.5694 15.6913 5.27426 15.4482 5.03121C15.2052 4.78815 14.91 4.66663 14.5628 4.66663C14.2156 4.66663 13.9205 4.78815 13.6774 5.03121C13.4344 5.27426 13.3128 5.5694 13.3128 5.91663C13.3128 6.26385 13.4344 6.55899 13.6774 6.80204C13.9205 7.0451 14.2156 7.16663 14.5628 7.16663Z" fill="#3F3D43"/>
</g>
</svg>
